<svg width="179" height="179" viewBox="0 0 179 179" fill="none" xmlns="http://www.w3.org/2000/svg">
<g clip-path="url(#clip0_5_26)">
<path d="M177.677 99.0914C175.892 82.8372 174.028 74.5833 169.056 64.6389C169.056 64.6389 183.972 19.8889 174.028 1.49167C170.677 -4.70372 137.213 9.88478 124.306 19.8889C124.306 19.8889 104.417 14.9266 89.5 14.9266C74.5833 14.9266 54.6944 19.8889 54.6944 19.8889C41.7866 9.88478 8.3235 -4.70372 4.97222 1.49167C-4.97223 19.8889 9.94444 64.6389 9.94444 64.6389C4.97222 74.5833 3.10764 82.8372 1.32261 99.0914C-0.64142 116.912 3.26675 131.117 4.97222 134.25C6.91139 137.81 16.7415 149.291 29.8333 159.111C49.7222 174.028 79.5556 179 89.5 179C99.4444 179 129.278 174.028 149.167 159.111C162.259 149.291 172.089 137.81 174.028 134.25C175.733 131.117 179.641 116.912 177.677 99.0914Z" fill="#FFCC4D"/>
<path d="M89.5 96.9583C104.417 96.9583 104.417 99.4445 104.417 104.417C104.417 109.389 96.9583 119.333 89.5 119.333C82.0417 119.333 74.5833 109.389 74.5833 104.417C74.5833 99.4445 74.5784 96.9583 89.5 96.9583Z" fill="#E75A70"/>
<path d="M9.94444 14.9167C12.167 8.24395 37.9878 19.8889 42.96 24.8611C42.96 24.8611 19.8889 39.7778 14.9167 54.6944C14.9167 54.6944 4.97222 29.8333 9.94444 14.9167ZM169.056 14.9167C166.833 8.24395 141.012 19.8889 136.04 24.8611C136.04 24.8611 159.111 39.7778 164.083 54.6944C164.083 54.6944 174.028 29.8333 169.056 14.9167Z" fill="#F18F26"/>
<path d="M24.5329 27.8594C24.5329 20.8286 54.6944 34.8056 49.7222 39.7778C44.75 44.75 39.7778 47.7482 34.8056 52.7205C29.8333 57.6927 24.5329 32.8316 24.5329 27.8594ZM154.467 27.8594C154.467 20.8286 124.306 34.8056 129.278 39.7778C134.25 44.75 139.222 47.7482 144.194 52.7205C149.167 57.6927 154.467 32.8316 154.467 27.8594Z" fill="#FFCC4D"/>
<path d="M3.48552 124.306C2.96945 124.305 2.4663 124.144 2.04585 123.845C1.6254 123.546 1.30849 123.123 1.13907 122.636C0.969663 122.148 0.956148 121.62 1.1004 121.125C1.24466 120.629 1.53954 120.191 1.94413 119.87C2.74963 119.239 21.9325 104.357 54.8884 106.918C56.2557 107.017 57.28 108.215 57.1756 109.583C57.0712 110.95 55.8977 112.074 54.5055 111.87C23.5136 109.513 5.20591 123.634 5.02691 123.779C4.58689 124.122 4.04393 124.308 3.48552 124.306ZM47.5792 101.12C47.3281 101.121 47.0783 101.084 46.8383 101.011C23.0214 93.5673 3.39602 99.2853 3.19713 99.34C2.88469 99.4341 2.55679 99.4656 2.23215 99.4329C1.9075 99.4002 1.59248 99.3039 1.30507 99.1495C1.01765 98.995 0.763466 98.7855 0.557031 98.5328C0.350595 98.2801 0.19595 97.9893 0.101923 97.6768C0.00789665 97.3644 -0.0236691 97.0365 0.00902822 96.7118C0.0417255 96.3872 0.138045 96.0722 0.292489 95.7848C0.446932 95.4974 0.656474 95.2432 0.90915 95.0367C1.16183 94.8303 1.45269 94.6756 1.76513 94.5816C2.62533 94.3231 23.0761 88.3813 48.3151 96.2622C48.881 96.4401 49.3647 96.8144 49.6788 97.3176C49.9929 97.8209 50.1167 98.4198 50.0278 99.0064C49.939 99.5929 49.6434 100.128 49.1943 100.516C48.7453 100.904 48.1724 101.118 47.5792 101.12ZM175.514 124.306C176.031 124.305 176.534 124.144 176.954 123.845C177.375 123.546 177.692 123.123 177.861 122.636C178.03 122.148 178.044 121.62 177.9 121.125C177.755 120.629 177.46 120.191 177.056 119.87C176.25 119.239 157.068 104.357 124.112 106.918C123.455 106.969 122.846 107.278 122.417 107.777C121.988 108.277 121.775 108.926 121.824 109.583C121.929 110.95 123.102 112.074 124.494 111.87C155.486 109.513 173.794 123.634 173.973 123.779C174.413 124.122 174.956 124.308 175.514 124.306ZM131.421 101.12C131.669 101.12 131.916 101.084 132.162 101.011C155.979 93.5673 175.604 99.2853 175.803 99.34C176.115 99.4341 176.443 99.4656 176.768 99.4329C177.092 99.4002 177.407 99.3039 177.695 99.1495C177.982 98.995 178.237 98.7855 178.443 98.5328C178.649 98.2801 178.804 97.9893 178.898 97.6768C178.992 97.3644 179.024 97.0365 178.991 96.7118C178.958 96.3872 178.862 96.0722 178.707 95.7848C178.553 95.4974 178.344 95.2432 178.091 95.0367C177.838 94.8303 177.547 94.6756 177.235 94.5816C176.375 94.3231 155.924 88.3813 130.685 96.2622C130.119 96.4401 129.635 96.8144 129.321 97.3176C129.007 97.8209 128.883 98.4198 128.972 99.0064C129.061 99.5929 129.357 100.128 129.806 100.516C130.255 100.904 130.828 101.118 131.421 101.12Z" fill="#FEE7B8"/>
<path d="M139.337 120.283C134.479 121.238 114.361 129.278 89.5 129.278C64.6389 129.278 44.5213 121.238 39.6634 120.283C34.8055 119.328 34.2337 125.618 37.0033 134.906C39.7778 144.194 54.6944 164.083 89.5 164.083C124.306 164.083 139.222 144.194 141.997 134.906C144.771 125.618 144.194 119.333 139.337 120.283Z" fill="#292F33"/>
<path d="M39.7778 124.306C39.7778 124.306 64.6389 134.25 89.5 134.25C114.361 134.25 139.222 124.306 139.222 124.306C139.222 124.306 136.736 139.222 131.764 139.222C126.792 139.222 124.306 134.25 124.306 134.25C124.306 134.25 104.417 144.194 89.5 144.194C74.5833 144.194 54.6944 134.25 54.6944 134.25C54.6944 134.25 52.2083 139.222 47.2361 139.222C42.2639 139.222 39.7778 124.306 39.7778 124.306Z" fill="#F5F8FA"/>
<path d="M80.6793 25.4429C78.63 19.6375 74.3592 14.8835 68.8058 12.2262C63.2525 9.56885 56.8711 9.22564 51.0647 11.272C47.5843 12.4993 44.4474 14.5401 41.9151 17.2246C39.3827 19.9092 37.5283 23.1598 36.506 26.7058C32.4798 23.8886 27.663 22.4226 22.75 22.5191C17.837 22.6155 13.0814 24.2695 9.16884 27.2425C5.25625 30.2155 2.38868 34.354 0.979454 39.0616C-0.429773 43.7692 -0.307876 48.8026 1.32758 53.4365C1.93419 55.1519 2.73969 56.7331 3.67447 58.1999C13.3753 76.0104 41.4037 88.5304 58.3789 88.6846C71.4906 77.9098 85.4526 50.5774 81.8328 30.6239C81.6421 28.8594 81.2552 27.1216 80.6793 25.4429ZM98.3207 25.4429C99.9544 20.8059 103.019 16.8076 107.071 14.0245C111.124 11.2415 115.956 9.81757 120.871 9.95806C125.785 10.0985 130.528 11.7962 134.415 14.8062C138.302 17.8162 141.133 21.9831 142.499 26.7058C145.52 24.5916 149.001 23.2273 152.654 22.7258C156.307 22.2244 160.027 22.6001 163.507 23.8219C169.312 25.8712 174.066 30.1419 176.723 35.6953C179.381 41.2487 179.724 47.6301 177.677 53.4365C177.077 55.1085 176.288 56.7066 175.326 58.1999C165.625 76.0104 137.596 88.5304 120.621 88.6846C107.509 77.9098 93.5474 50.5774 97.1671 30.6239C97.3495 28.8836 97.734 27.1566 98.3207 25.4429Z" fill="#DD2E44"/>
</g>
<defs>
<clipPath id="clip0_5_26">
<rect width="179" height="179" fill="white"/>
</clipPath>
</defs>
</svg>
